<svg width="48" height="48" viewBox="0 0 48 48" fill="none" xmlns="http://www.w3.org/2000/svg">
  <path d="M10.75 7.75H10C9.13805 7.75 8.3114 8.09241 7.7019 8.7019C7.09241 9.3114 6.75 10.138 6.75 11V16C6.75 16.3315 6.8817 16.6495 7.11612 16.8839C7.35054 17.1183 7.66848 17.25 8 17.25C8.33152 17.25 8.64946 17.1183 8.88388 16.8839C9.1183 16.6495 9.25 16.3315 9.25 16V11C9.25 10.8011 9.32902 10.6103 9.46967 10.4697C9.61032 10.329 9.80109 10.25 10 10.25H10.75V37C10.75 37.862 11.0924 38.6886 11.7019 39.2981C12.3114 39.9076 13.138 40.25 14 40.25H34.75V41C34.75 41.1989 34.671 41.3897 34.5303 41.5303C34.3897 41.671 34.1989 41.75 34 41.75H10C9.80109 41.75 9.61032 41.671 9.46967 41.5303C9.32902 41.3897 9.25 41.1989 9.25 41V20C9.25 19.6685 9.1183 19.3505 8.88388 19.1161C8.64946 18.8817 8.33152 18.75 8 18.75C7.66848 18.75 7.35054 18.8817 7.11612 19.1161C6.8817 19.3505 6.75 19.6685 6.75 20V41C6.75 41.862 7.09241 42.6886 7.7019 43.2981C8.3114 43.9076 9.13805 44.25 10 44.25H34C34.862 44.25 35.6886 43.9076 36.2981 43.2981C36.9076 42.6886 37.25 41.862 37.25 41V40.25H38C38.862 40.25 39.6886 39.9076 40.2981 39.2981C40.9076 38.6886 41.25 37.862 41.25 37V16.55V16.5498C41.2493 15.6988 40.9148 14.882 40.3184 14.2749C40.3184 14.2748 40.3184 14.2748 40.3183 14.2748L30.9787 4.7252L30.9785 4.725C30.6763 4.41662 30.3156 4.17156 29.9175 4.00416C29.5194 3.83675 29.092 3.75035 28.6602 3.75H28.66H14C13.138 3.75 12.3114 4.09241 11.7019 4.7019C11.0924 5.3114 10.75 6.13805 10.75 7V7.75ZM31.25 8.61101L37.2838 14.75H32C31.8011 14.75 31.6103 14.671 31.4697 14.5303C31.329 14.3897 31.25 14.1989 31.25 14V8.61101ZM38.75 37C38.75 37.1989 38.671 37.3897 38.5303 37.5303C38.3897 37.671 38.1989 37.75 38 37.75H14C13.8011 37.75 13.6103 37.671 13.4697 37.5303C13.329 37.3897 13.25 37.1989 13.25 37V7C13.25 6.80109 13.329 6.61032 13.4697 6.46967C13.6103 6.32902 13.8011 6.25 14 6.25H28.6562C28.6877 6.25104 28.719 6.25406 28.75 6.25903V14C28.75 14.862 29.0924 15.6886 29.7019 16.2981C30.3114 16.9076 31.138 17.25 32 17.25H38.75V37Z" fill="#828BA2" stroke="#828BA2" stroke-width="0.5"/>
</svg>
